<mxfile host="app.diagrams.net" modified="2023-02-22T02:10:17.468Z" agent="5.0 (Windows NT 10.0; Win64; x64) AppleWebKit/537.36 (KHTML, like Gecko) Chrome/110.0.0.0 Safari/537.36" etag="q9kQw__SX0Utb83Auljd" version="20.8.22" type="github">
  <diagram name="페이지-1" id="2jKldEpFqvBZ3NxTpI1q">
    <mxGraphModel dx="2038" dy="1006" grid="1" gridSize="10" guides="1" tooltips="1" connect="1" arrows="1" fold="1" page="1" pageScale="1" pageWidth="1169" pageHeight="827" math="0" shadow="0">
      <root>
        <mxCell id="0" />
        <mxCell id="NgrTw1Hf1ZFmr4vW8jG1-8" value="room" style="locked=1;" parent="0" />
        <mxCell id="NgrTw1Hf1ZFmr4vW8jG1-9" value="" style="rounded=0;whiteSpace=wrap;html=1;" vertex="1" parent="NgrTw1Hf1ZFmr4vW8jG1-8">
          <mxGeometry x="720" y="40" width="410" height="740" as="geometry" />
        </mxCell>
        <mxCell id="1" parent="0" />
        <mxCell id="NgrTw1Hf1ZFmr4vW8jG1-13" value="" style="group" vertex="1" connectable="0" parent="1">
          <mxGeometry x="770" y="80" width="308.20000000000005" height="357.6" as="geometry" />
        </mxCell>
        <mxCell id="NgrTw1Hf1ZFmr4vW8jG1-3" value="" style="points=[];aspect=fixed;html=1;align=center;shadow=0;dashed=0;image;image=img/lib/allied_telesis/storage/Datacenter_Server_Rack_ToR.svg;" vertex="1" parent="NgrTw1Hf1ZFmr4vW8jG1-13">
          <mxGeometry width="88.2" height="178.8" as="geometry" />
        </mxCell>
        <mxCell id="NgrTw1Hf1ZFmr4vW8jG1-4" value="" style="points=[];aspect=fixed;html=1;align=center;shadow=0;dashed=0;image;image=img/lib/allied_telesis/storage/Datacenter_Server_Rack_ToR.svg;" vertex="1" parent="NgrTw1Hf1ZFmr4vW8jG1-13">
          <mxGeometry x="110" width="88.2" height="178.8" as="geometry" />
        </mxCell>
        <mxCell id="NgrTw1Hf1ZFmr4vW8jG1-5" value="" style="points=[];aspect=fixed;html=1;align=center;shadow=0;dashed=0;image;image=img/lib/allied_telesis/storage/Datacenter_Server_Rack_ToR.svg;" vertex="1" parent="NgrTw1Hf1ZFmr4vW8jG1-13">
          <mxGeometry x="220" width="88.2" height="178.8" as="geometry" />
        </mxCell>
        <mxCell id="NgrTw1Hf1ZFmr4vW8jG1-10" value="" style="points=[];aspect=fixed;html=1;align=center;shadow=0;dashed=0;image;image=img/lib/allied_telesis/storage/Datacenter_Server_Rack_ToR.svg;" vertex="1" parent="NgrTw1Hf1ZFmr4vW8jG1-13">
          <mxGeometry y="178.8" width="88.2" height="178.8" as="geometry" />
        </mxCell>
        <mxCell id="NgrTw1Hf1ZFmr4vW8jG1-11" value="" style="points=[];aspect=fixed;html=1;align=center;shadow=0;dashed=0;image;image=img/lib/allied_telesis/storage/Datacenter_Server_Rack_ToR.svg;" vertex="1" parent="NgrTw1Hf1ZFmr4vW8jG1-13">
          <mxGeometry x="110" y="178.8" width="88.2" height="178.8" as="geometry" />
        </mxCell>
        <mxCell id="NgrTw1Hf1ZFmr4vW8jG1-12" value="" style="points=[];aspect=fixed;html=1;align=center;shadow=0;dashed=0;image;image=img/lib/allied_telesis/storage/Datacenter_Server_Rack_ToR.svg;" vertex="1" parent="NgrTw1Hf1ZFmr4vW8jG1-13">
          <mxGeometry x="220" y="178.8" width="88.2" height="178.8" as="geometry" />
        </mxCell>
        <mxCell id="NgrTw1Hf1ZFmr4vW8jG1-7" value="" style="sketch=0;pointerEvents=1;shadow=0;dashed=0;html=1;strokeColor=none;fillColor=#005F4B;labelPosition=center;verticalLabelPosition=bottom;verticalAlign=top;align=center;outlineConnect=0;shape=mxgraph.veeam2.interface_console;" vertex="1" parent="1">
          <mxGeometry x="960" y="400" width="100" height="100" as="geometry" />
        </mxCell>
        <mxCell id="NgrTw1Hf1ZFmr4vW8jG1-14" value="" style="shape=mxgraph.signs.people.man_1;html=1;pointerEvents=1;fillColor=#000000;strokeColor=none;verticalLabelPosition=bottom;verticalAlign=top;align=center;aspect=fixed;" vertex="1" parent="1">
          <mxGeometry x="1030" y="437.6" width="51.72" height="137" as="geometry" />
        </mxCell>
        <mxCell id="NgrTw1Hf1ZFmr4vW8jG1-16" value="" style="sketch=0;pointerEvents=1;shadow=0;dashed=0;html=1;strokeColor=none;fillColor=#005F4B;labelPosition=center;verticalLabelPosition=bottom;verticalAlign=top;align=center;outlineConnect=0;shape=mxgraph.veeam2.interface_console;" vertex="1" parent="1">
          <mxGeometry x="170" y="400" width="100" height="100" as="geometry" />
        </mxCell>
        <mxCell id="NgrTw1Hf1ZFmr4vW8jG1-15" value="" style="shape=mxgraph.cisco.people.androgenous_person;html=1;pointerEvents=1;dashed=0;fillColor=#036897;strokeColor=#ffffff;strokeWidth=2;verticalLabelPosition=bottom;verticalAlign=top;align=center;outlineConnect=0;aspect=fixed;" vertex="1" parent="1">
          <mxGeometry x="110" y="437.6" width="109.39" height="130" as="geometry" />
        </mxCell>
      </root>
    </mxGraphModel>
  </diagram>
</mxfile>
